<svg width="103" height="103" viewBox="0 0 103 103" fill="none" xmlns="http://www.w3.org/2000/svg">
<circle cx="51.5" cy="51.5" r="51.5" fill="black"/>
<path fill-rule="evenodd" clip-rule="evenodd" d="M27.0565 25.0021C26.4526 25.0698 25.9967 25.5898 26 26.2065V76.7956C26 77.4606 26.5312 78 27.186 78H75.8141C76.4689 78 77 77.4606 77 76.7956V34.5251C76.9975 34.2067 76.8709 33.9021 76.648 33.6782L68.4752 25.3594C68.2548 25.133 67.9548 25.0044 67.6413 25.0019H27.1853C27.1423 24.9994 27.0989 24.9994 27.0558 25.0019L27.0565 25.0021ZM28.3724 27.4109H39.0278V43.5588C39.0278 44.2238 39.5585 44.7632 40.2137 44.7632H62.7858C63.441 44.7632 63.9717 44.2238 63.9717 43.5588V27.4109H67.1408L74.6276 35.0332V75.5905H68.8454V53.7782L68.8458 53.7778C68.8458 53.1128 68.3147 52.5734 67.6599 52.5734H35.321C34.6657 52.5734 34.135 53.1128 34.1346 53.7778V75.59H28.371V27.41L28.3724 27.4109ZM44.8469 28.7662C44.8837 28.7645 44.9209 28.7645 44.9581 28.7662H47.182C47.836 28.7654 48.3671 29.3048 48.3679 29.9706V39.4749C48.3671 40.1411 47.836 40.6801 47.182 40.6797H44.9581C44.3037 40.6801 43.7726 40.1411 43.7718 39.4749V29.9706C43.7701 29.3467 44.2363 28.8242 44.8468 28.7662H44.8469ZM36.5074 54.9824H66.4743V59.7627H36.5074V54.9824ZM36.5074 62.172H66.4743V68.2507H36.5074V62.172ZM36.5074 70.6601H66.4743V75.5912H36.5074V70.6601Z" fill="white"/>
</svg>
