<svg width="22" height="22" viewBox="0 0 22 22" fill="none" xmlns="http://www.w3.org/2000/svg">
<path d="M20.5 6L16.5 2L2 16V20.5L6.5 20L20.5 6Z" fill="white" stroke="white"/>
<path d="M21.3395 5.68064L21.3492 5.69039L21.3595 5.69959C21.3836 5.72118 21.4029 5.74761 21.4161 5.77715C21.4293 5.8067 21.4361 5.8387 21.4361 5.87106C21.4361 5.90342 21.4293 5.93542 21.4161 5.96496C21.4029 5.99451 21.3836 6.02094 21.3595 6.04253L21.3492 6.05172L21.3395 6.06147L6.15258 21.2484H6.14105L6.01065 21.3579H5.99401L5.90523 21.3931C5.88188 21.4023 5.85717 21.4077 5.83211 21.409H0.730159C0.669116 21.409 0.610575 21.3847 0.567412 21.3416C0.524249 21.2984 0.5 21.2399 0.5 21.1788V16.1341C0.505723 16.1193 0.512982 16.105 0.521681 16.0916L0.621145 15.9383L0.6143 15.884L0.711746 15.7679V15.7564L15.8986 0.569536L15.9001 0.568081C15.9215 0.546507 15.9469 0.529385 15.975 0.517701C16.003 0.506016 16.0331 0.5 16.0635 0.5C16.0939 0.5 16.124 0.506016 16.152 0.517701C16.1801 0.529385 16.2055 0.546507 16.2269 0.568084L16.2284 0.569533L21.3395 5.68064ZM5.48772 20.5029L5.84127 20.8564L6.19482 20.5029L17.578 9.11969L17.9316 8.76614L17.578 8.41258L13.4964 4.331L13.1429 3.97744L12.7893 4.331L1.40613 15.7142L1.05258 16.0677L1.40613 16.4213L5.48772 20.5029ZM0.960317 20.4487V20.9487H1.46032H4.08159H5.28869L4.43514 20.0951L1.81387 17.4739L0.960317 16.6203V17.8274V20.4487ZM17.9004 8.09017L18.254 8.44372L18.6075 8.09017L20.4986 6.19906L20.8522 5.8455L20.4986 5.49195L16.417 1.41036L16.0635 1.05681L15.7099 1.41036L13.8188 3.30147L13.4653 3.65503L13.8188 4.00858L17.9004 8.09017Z" fill="#D92121" stroke="black"/>
</svg>
