<svg width="27" height="27" viewBox="0 0 27 27" fill="none" xmlns="http://www.w3.org/2000/svg">
<path d="M13.4998 9.20422C11.1344 9.20422 9.20399 11.1346 9.20399 13.5C9.20399 15.8654 11.1344 17.7958 13.4998 17.7958C15.8652 17.7958 17.7956 15.8654 17.7956 13.5C17.7956 11.1346 15.8652 9.20422 13.4998 9.20422ZM26.384 13.5C26.384 11.7211 26.4001 9.95832 26.3002 8.18264C26.2003 6.12014 25.7298 4.28967 24.2216 2.78146C22.7101 1.27004 20.8829 0.802753 18.8204 0.702851C17.0415 0.602948 15.2787 0.619062 13.503 0.619062C11.7241 0.619062 9.96131 0.602948 8.18563 0.702851C6.12313 0.802753 4.29266 1.27326 2.78445 2.78146C1.27303 4.29289 0.805744 6.12014 0.705841 8.18264C0.605939 9.96154 0.622052 11.7243 0.622052 13.5C0.622052 15.2757 0.605939 17.0417 0.705841 18.8174C0.805744 20.8799 1.27625 22.7104 2.78445 24.2186C4.29588 25.73 6.12313 26.1973 8.18563 26.2972C9.96453 26.3971 11.7273 26.381 13.503 26.381C15.2819 26.381 17.0447 26.3971 18.8204 26.2972C20.8829 26.1973 22.7134 25.7268 24.2216 24.2186C25.733 22.7071 26.2003 20.8799 26.3002 18.8174C26.4033 17.0417 26.384 15.2789 26.384 13.5ZM13.4998 20.1097C9.84207 20.1097 6.89012 17.1577 6.89012 13.5C6.89012 9.8423 9.84207 6.89035 13.4998 6.89035C17.1575 6.89035 20.1095 9.8423 20.1095 13.5C20.1095 17.1577 17.1575 20.1097 13.4998 20.1097ZM20.3802 8.1633C19.5262 8.1633 18.8365 7.47365 18.8365 6.61965C18.8365 5.76564 19.5262 5.07599 20.3802 5.07599C21.2342 5.07599 21.9238 5.76564 21.9238 6.61965C21.9241 6.82243 21.8843 7.02328 21.8068 7.21068C21.7293 7.39808 21.6156 7.56835 21.4723 7.71174C21.3289 7.85513 21.1586 7.96883 20.9712 8.04631C20.7838 8.1238 20.5829 8.16355 20.3802 8.1633Z" fill="white"/>
</svg>
