<svg width="30" height="26" viewBox="0 0 30 26" fill="none" xmlns="http://www.w3.org/2000/svg">
<path d="M29.5395 3.58263C28.461 4.07596 27.3024 4.40929 26.0843 4.55996C27.3411 3.78368 28.2814 2.56192 28.7296 1.12263C27.5489 1.84661 26.2566 2.35622 24.9089 2.62929C24.0026 1.63045 22.8023 0.968395 21.4941 0.745926C20.186 0.523456 18.8434 0.753016 17.6746 1.39896C16.5058 2.04491 15.5763 3.07111 15.0304 4.31823C14.4845 5.56535 14.3528 6.96363 14.6556 8.29596C12.2631 8.17195 9.9225 7.53003 7.78582 6.41183C5.64914 5.29364 3.76411 3.72418 2.25306 1.80529C1.7364 2.72529 1.43931 3.79196 1.43931 4.92796C1.43874 5.95062 1.6827 6.95762 2.14957 7.8596C2.61644 8.76159 3.29177 9.53068 4.11565 10.0986C3.16017 10.0672 2.22577 9.80074 1.39023 9.32129V9.40129C1.39013 10.8356 1.87077 12.2258 2.75059 13.336C3.63041 14.4461 4.85522 15.2079 6.21719 15.492C5.33082 15.7396 4.40154 15.7761 3.49952 15.5986C3.88379 16.8328 4.63231 17.912 5.64029 18.6852C6.64827 19.4584 7.86525 19.8869 9.12085 19.9106C6.98939 21.6378 4.35704 22.5747 1.64727 22.5706C1.16726 22.5708 0.687661 22.5418 0.210938 22.484C2.96151 24.3095 6.16338 25.2784 9.43344 25.2746C20.503 25.2746 26.5545 15.8106 26.5545 7.60263C26.5545 7.33596 26.548 7.06663 26.5364 6.79996C27.7135 5.92126 28.7295 4.83315 29.5369 3.58663L29.5395 3.58263V3.58263Z" fill="white"/>
</svg>
